# xmcd
#
# Track frame offsets:
#	150
#	14426
#	26462
#	38699
#	53355
#	65509
#	82286
#	93466
#	106900
#	122489
#	131535
#	148843
#	164985
#	175970
#	186725
#	201517
#	214347
#	227619
#	241210
#	252424
#
# Disc length: 3517 seconds
#
# Revision: 0
# Processed by: cddbd v1.5.1PL0 Copyright (c) Steve Scherf et al.
# Submitted via: audiograbber 1.83.01
#
DISCID=2a0dbb14
DTITLE=Roland Garcia - Country Roland
DYEAR=1900
DGENRE=Spanish Country
TTITLE0=Una Ilusion
TTITLE1=Una Linda Mujer
TTITLE2=Se Mi Hizo Facil
TTITLE3=El Rancho Grande
TTITLE4=Gabino Barrera
TTITLE5=El Potro Lobo Gateado
TTITLE6=Truck Driving Man
TTITLE7=No Volvere'
TTITLE8=Arnulfo Gonzales
TTITLE9=Mis Carritos
TTITLE10=Echame A Mi La Culpa
TTITLE11=Adelita
TTITLE12=Las Margaritas
TTITLE13=Cuando Salgo A Los Campos
TTITLE14=El Quelite
TTITLE15=Tu Requerdo Y Yo
TTITLE16=Los Laureles
TTITLE17=La Zenaida
TTITLE18=Fallaste Corazon
TTITLE19=Augustin Jaime
EXTD=
EXTT0=
EXTT1=
EXTT2=
EXTT3=
EXTT4=
EXTT5=
EXTT6=
EXTT7=
EXTT8=
EXTT9=
EXTT10=
EXTT11=
EXTT12=
EXTT13=
EXTT14=
EXTT15=
EXTT16=
EXTT17=
EXTT18=
EXTT19=
PLAYORDER=
